# xmcd
#
# Track frame offsets: 
#        150
#        5570
#        23997
#        40175
#        57270
#        74462
#        98582
#        112315
#        131610
#        142110
#        143930
#        158220
#        173830
#
# Disc length: 2577 seconds
#
# Revision: 1
# Processed by: cddbd v1.5.1PL0 Copyright (c) Steve Scherf et al.
# Submitted via: ExactAudioCopy v0.95a5
#
DISCID=bd0a0f0d
DTITLE=W(Double You) - 2nd W
DYEAR=2005
DGENRE=JPop
TTITLE0=W no THEME
TTITLE1=dekoboko SEVENTEEN
TTITLE2=ROBO KISS
TTITLE3=samidare koiuta
TTITLE4=aa iina!
TTITLE5=dakishimenaide -nikkitsuki-
TTITLE6=daburuyu joshi koutou gakkou kouka
TTITLE7=18 -My Happy Birthday Comes!-
TTITLE8=Koino FUGUE
TTITLE9=INTERLUDE
TTITLE10=juunanano natsu
TTITLE11=17 saiyo sayounara (ARRIVEDERCI)
TTITLE12=mada mouchotto amaete itai
EXTD=
EXTT0=
EXTT1=
EXTT2=
EXTT3=
EXTT4=
EXTT5=
EXTT6=
EXTT7=
EXTT8=
EXTT9=
EXTT10=
EXTT11=
EXTT12=
PLAYORDER=
